<svg width="72" height="72" viewBox="0 0 72 72" fill="none" xmlns="http://www.w3.org/2000/svg">
<g id="Icon / Sparta Border">
<path id="Vector" d="M61.7123 57.0725C67.2973 50.805 70.3781 42.6999 70.3662 34.3049C70.3662 15.3576 54.9835 0 36.0087 0C17.0339 0 1.65591 15.3576 1.65591 34.3049C1.64503 42.7003 4.72708 50.8055 10.3134 57.0725L8.61657 58.7682L7.90795 59.4744C8.11349 59.7015 8.32021 59.9273 8.53053 60.1496C9.06348 60.7152 9.61316 61.2633 10.1796 61.7938C14.376 65.7312 19.4174 68.6566 24.9182 70.3462C25.6974 70.5852 26.4864 70.7991 27.2855 70.9879C33.0251 72.3374 38.9995 72.3374 44.7391 70.9879C45.5357 70.7991 46.3252 70.5852 47.1075 70.3462C52.6079 68.6566 57.649 65.7312 61.8449 61.7938C62.4114 61.2617 62.9614 60.7136 63.4952 60.1496C63.7055 59.9273 63.9122 59.7015 64.1166 59.4744L63.4092 58.7682L61.7123 57.0725Z" fill="white"/>
<path id="Vector_2" d="M58.7439 58.6891L57.0471 56.9946L55.7744 55.7244C52.576 58.6702 48.7588 60.8627 44.6027 62.1413L45.1285 63.8585L45.8299 66.148L46.1215 67.104C51.0907 65.5767 55.6482 62.9408 59.4501 59.3953L58.7439 58.6891Z" fill="#B41E1E"/>
<path id="Vector_3" d="M43.458 66.7848L42.7542 64.4892L42.2272 62.7661C38.1353 63.6488 33.9022 63.6488 29.8103 62.7661L29.2821 64.4892L28.5795 66.7848L28.2867 67.7407C33.3758 68.9038 38.6617 68.9038 43.7507 67.7407L43.458 66.7848Z" fill="#FAA519"/>
<path id="Vector_4" d="M16.2652 55.7248L14.9925 56.9951L13.2957 58.6895L12.5895 59.3946C16.3921 62.9404 20.9504 65.5763 25.9205 67.1032L26.212 66.1473L26.9135 63.8577L27.4393 62.1406C23.2832 60.862 19.466 58.6694 16.2676 55.7236" fill="#005AA5"/>
<path id="Vector_5" d="M46.1069 67.1034L45.8153 66.1474L45.1139 63.8579L44.5881 62.1407C48.7442 60.8621 52.5614 58.6696 55.7598 55.7238L57.0324 56.994L58.7293 58.6885L59.4355 59.3935C55.6336 62.9391 51.0761 65.5749 46.1069 67.1022V67.1034ZM36.0047 5.18529C19.899 5.18529 6.8476 18.2223 6.8476 34.3053C6.83566 41.3254 9.37231 48.1111 13.9863 53.402C14.1871 53.6338 14.3914 53.8608 14.6005 54.0855L13.3279 55.3521C13.1192 55.1291 12.9136 54.902 12.7113 54.671C7.76026 49.043 5.034 41.8011 5.0444 34.3053C5.0444 17.2317 18.906 3.39046 36.0047 3.39046C53.1034 3.39046 66.9662 17.2317 66.9662 34.3053C66.9761 41.8013 64.2494 49.0431 59.2981 54.671C59.0957 54.9012 58.8906 55.1283 58.6827 55.3521L57.41 54.0819C57.618 53.8572 57.8235 53.6302 58.0243 53.3984C62.6396 48.1094 65.1784 41.3249 65.1689 34.3053C65.1689 18.2223 52.1116 5.18529 36.0047 5.18529ZM36.0047 68.6102C33.4029 68.6114 30.8094 68.3188 28.2733 67.7379L28.566 66.7819L29.2687 64.4864L29.7969 62.7645C33.8889 63.6456 38.1216 63.6456 42.2137 62.7645L42.7407 64.4864L43.4445 66.7855L43.7373 67.7415C41.2008 68.3224 38.6068 68.6151 36.0047 68.6138V68.6102ZM26.8967 63.8627L26.1952 66.1522L25.9037 67.1082C20.934 65.5795 16.3765 62.942 12.5751 59.3947L13.2813 58.6897L14.9781 56.9952L16.2508 55.725C19.4492 58.6708 23.2664 60.8633 27.4225 62.1419L26.8967 63.8627ZM60.3783 57.0514C60.5878 56.8275 60.7942 56.6013 60.9973 56.3726C66.3961 50.2931 69.373 42.4419 69.3621 34.3113C69.3621 15.9148 54.425 1.00293 36.0035 1.00293C17.5819 1.00293 2.64731 15.9089 2.64731 34.3053C2.63641 42.4359 5.61326 50.2872 11.012 56.3667C11.2152 56.5961 11.4215 56.8223 11.631 57.0454L10.9248 57.7516L9.23036 59.4449C9.76172 60.0089 10.3114 60.5566 10.8794 61.088C14.9598 64.9097 19.8584 67.7501 25.2022 69.3929C25.9813 69.6319 26.7708 69.845 27.5706 70.0322C33.1187 71.3276 38.8906 71.3276 44.4387 70.0322C45.2393 69.845 46.0288 69.6319 46.8071 69.3929C52.1515 67.7504 57.0505 64.91 61.1312 61.088C61.6992 60.5574 62.2488 60.0097 62.7802 59.4449L61.0846 57.7516L60.3783 57.0514Z" fill="black"/>
<path id="Vector_6" d="M43.0008 27.2802L50.1921 29.2077V24.7314C50.1852 22.4037 49.2565 20.1736 47.6094 18.529C45.9623 16.8843 43.7308 15.959 41.4032 15.9556H30.6186C28.291 15.959 26.0595 16.8843 24.4124 18.529C22.7653 20.1736 21.8366 22.4037 21.8297 24.7314V27.3244C21.8297 31.0909 23.9603 34.7702 28.8214 36.056L41.3613 39.3792C42.3591 39.6457 43.0032 40.3101 43.0032 41.3963V44.6788C42.997 45.1004 42.8267 45.503 42.5283 45.8009C42.2299 46.0988 41.8271 46.2686 41.4056 46.2741H30.6186C30.4086 46.2754 30.2004 46.235 30.0061 46.1553C29.8118 46.0757 29.6352 45.9583 29.4865 45.8099C29.3378 45.6616 29.22 45.4852 29.1399 45.2911C29.0598 45.097 29.019 44.8889 29.0198 44.6788V41.3963L21.8285 39.4903V43.8782C21.8354 46.2058 22.7641 48.436 24.4112 50.0806C26.0583 51.7253 28.2898 52.6505 30.6174 52.654H41.4044C43.7322 52.6509 45.964 51.7257 47.6114 50.081C49.2588 48.4363 50.1876 46.206 50.1945 43.8782V41.3079C50.1945 37.5401 48.0627 33.8621 43.2028 32.5763L30.6628 29.2519C29.6639 28.9866 29.0198 28.321 29.0198 27.2324V23.9331C29.0198 22.9772 29.6627 22.3379 30.6174 22.3379H41.4044C41.6141 22.3371 41.822 22.3778 42.016 22.4577C42.2099 22.5375 42.3862 22.655 42.5346 22.8033C42.683 22.9515 42.8005 23.1277 42.8806 23.3216C42.9606 23.5155 43.0015 23.7234 43.0008 23.9331V27.2802Z" fill="white"/>
<path id="Vector_7" d="M36.0158 3.38989C18.9171 3.38989 5.05551 17.2311 5.05551 34.3047C5.045 41.8008 7.77174 49.0428 12.7236 54.6704C12.9255 54.9011 13.1299 55.1281 13.339 55.3516L14.6116 54.0813C14.4029 53.8567 14.1982 53.6288 13.9974 53.3978C9.38207 48.1088 6.84332 41.3243 6.85273 34.3047C6.85273 18.2217 19.9101 5.18472 36.0158 5.18472C52.1215 5.18472 65.18 18.2217 65.18 34.3047C65.1903 41.3256 62.6515 48.1114 58.0354 53.4014C57.8346 53.632 57.6291 53.8602 57.4212 54.0849L58.6938 55.3551C58.9017 55.1321 59.1068 54.905 59.3092 54.674C64.261 49.0464 66.9878 41.8044 66.9773 34.3083C66.9773 17.2347 53.1157 3.39348 36.0158 3.39348" fill="white"/>
</g>
</svg>
